<svg width="26" height="26" viewBox="0 0 26 26" fill="none" xmlns="http://www.w3.org/2000/svg">
<path d="M23.8335 18.3304V21.5804C23.8348 21.8821 23.773 22.1808 23.6521 22.4572C23.5312 22.7337 23.354 22.9818 23.1316 23.1858C22.9093 23.3897 22.6468 23.545 22.361 23.6417C22.0752 23.7384 21.7724 23.7743 21.4719 23.7471C18.1383 23.3849 14.9361 22.2458 12.1227 20.4213C9.50519 18.758 7.28599 16.5388 5.62271 13.9213C3.79186 11.0951 2.65248 7.87734 2.29688 4.52876C2.26981 4.22919 2.30541 3.92725 2.40142 3.64219C2.49743 3.35713 2.65175 3.09518 2.85454 2.87302C3.05734 2.65086 3.30417 2.47337 3.57932 2.35183C3.85447 2.23029 4.15191 2.16738 4.45271 2.1671H7.70271C8.22846 2.16192 8.73815 2.3481 9.13679 2.69092C9.53542 3.03375 9.7958 3.50983 9.86938 4.03043C10.0066 5.0705 10.261 6.09172 10.6277 7.0746C10.7735 7.46235 10.805 7.88375 10.7186 8.28888C10.6322 8.69401 10.4315 9.06588 10.1402 9.36043L8.76438 10.7363C10.3066 13.4484 12.5522 15.6941 15.2644 17.2363L16.6402 15.8604C16.9348 15.5692 17.3066 15.3684 17.7118 15.282C18.1169 15.1956 18.5383 15.2272 18.926 15.3729C19.9089 15.7397 20.9301 15.9941 21.9702 16.1313C22.4965 16.2055 22.9771 16.4706 23.3206 16.876C23.6642 17.2815 23.8467 17.7991 23.8335 18.3304Z" stroke="black" stroke-width="2" stroke-linecap="round" stroke-linejoin="round"/>
</svg>
