<svg width="145" height="41" viewBox="0 0 145 41" fill="none" xmlns="http://www.w3.org/2000/svg">
<g clip-path="url(#clip0_12_200)">
<path d="M32.6501 16.7605C33.0139 16.4984 33.4516 16.3583 33.9001 16.3605C34.1837 16.3605 34.4646 16.4164 34.7267 16.525C34.9887 16.6335 35.2268 16.7926 35.4274 16.9932C35.628 17.1938 35.7871 17.4319 35.8956 17.694C36.0042 17.956 36.0601 18.2369 36.0601 18.5205V29.6405C36.0671 30.0603 35.9517 30.473 35.7279 30.8282C35.5042 31.1834 35.1817 31.4657 34.8001 31.6405L27.0001 36.0905L19.1001 40.6705C18.7705 40.862 18.3962 40.9628 18.0151 40.9628C17.6339 40.9628 17.2596 40.862 16.9301 40.6705L9.00006 36.0905L1.09006 31.5005C0.633871 31.1987 0.309868 30.7344 0.184026 30.2021C0.058185 29.6698 0.139968 29.1095 0.412723 28.6354C0.685478 28.1612 1.12869 27.8089 1.65212 27.6501C2.17555 27.4912 2.73983 27.5379 3.23006 27.7805L11.1701 32.3605L18.0301 36.3605L24.9001 32.3605L31.7401 28.4105V22.2405L19.1001 29.5405C18.7705 29.732 18.3962 29.8328 18.0151 29.8328C17.6339 29.8328 17.2596 29.732 16.9301 29.5405L1.09006 20.3805C0.760714 20.1939 0.48648 19.9236 0.295084 19.597C0.103689 19.2704 0.0019183 18.8991 6.08796e-05 18.5205V11.3105C-0.0069927 10.8908 0.108425 10.4781 0.332198 10.1229C0.555972 9.7677 0.878403 9.48541 1.26006 9.31055L6.26006 6.42055L12.2601 2.98055L13.4601 7.25055L11.2001 8.55055L18.0601 4.55055L4.32006 12.5505V17.2805L18.0001 25.2005L32.6201 16.7605H32.6501ZM18.5201 0.0605469H18.6501H18.5201ZM18.8201 0.150547L18.9401 0.200547L18.8201 0.150547Z" fill="#79B85F"/>
<path d="M9 4.87033L17 0.290328C17.3295 0.0988861 17.7039 -0.00195312 18.085 -0.00195312C18.4661 -0.00195313 18.8405 0.0988861 19.17 0.290328L27 4.87033L35 9.45033C35.2449 9.59084 35.4598 9.77822 35.6323 10.0018C35.8048 10.2253 35.9315 10.4806 36.0054 10.7532C36.0792 11.0257 36.0986 11.3101 36.0625 11.5902C36.0264 11.8702 35.9355 12.1404 35.795 12.3853C35.6545 12.6302 35.4671 12.8451 35.2436 13.0176C35.02 13.1901 34.7647 13.3169 34.4921 13.3907C34.2196 13.4645 33.9352 13.4839 33.6552 13.4478C33.3751 13.4117 33.1049 13.3208 32.86 13.1803L24.9 8.59033L18 4.63033L11.14 8.63033L9 4.87033Z" fill="#79B85F"/>
<path d="M13.0701 17.7608C12.8232 17.9013 12.5511 17.9918 12.2692 18.0272C11.9873 18.0625 11.7013 18.042 11.4273 17.9668C11.1534 17.8915 10.897 17.7631 10.6727 17.5888C10.4484 17.4145 10.2606 17.1977 10.1201 16.9508C9.97957 16.7039 9.88906 16.4318 9.85372 16.1499C9.81838 15.868 9.8389 15.582 9.91412 15.308C9.98933 15.0341 10.1178 14.7777 10.2921 14.5534C10.4664 14.3291 10.6832 14.1413 10.9301 14.0008L16.9301 10.5208C17.2596 10.3294 17.634 10.2285 18.0151 10.2285C18.3962 10.2285 18.7705 10.3294 19.1001 10.5208L25.1001 13.9908C25.6 14.2693 25.9688 14.7349 26.1254 15.2854C26.282 15.8358 26.2136 16.4259 25.9351 16.9258C25.7972 17.1733 25.6119 17.3913 25.3898 17.5672C25.1677 17.7432 24.9131 17.8736 24.6405 17.9512C24.0901 18.1077 23.5 18.0393 23.0001 17.7608L18.0001 14.9008L13.0001 17.7608H13.0701Z" fill="white"/>
<path d="M56.9201 22.53L51.3801 14L49.3801 10.69H49.3201V22.53H47.3901V7.38H49.2901L54.6201 15.63L56.8201 19.27L56.8801 19.22V7.38H58.8001V22.53H56.9201ZM62.0401 22.53V7.38H71.6201V9.15H64.0001V14H70.5201V15.68H64.0001V20.68H71.6601V22.44L62.0401 22.53ZM81.0001 11L80.0001 14.74L78.0001 22.53H76.2701L72.4701 7.38H74.5501L76.2501 14.81L77.1701 18.9H77.2501L78.2501 14.83L80.3201 7.36H81.8901L84.0001 15L85.0001 19H85.0601C85.1935 18.3867 85.3235 17.72 85.4501 17C85.5801 16.31 85.7101 15.66 85.8501 15.06L87.5901 7.39H89.6801L85.9201 22.53H84.2601L82.2601 15L81.1301 11H81.0001ZM100.31 11.37C99.9715 11.1475 99.6093 10.9631 99.2301 10.82C98.9039 10.6978 98.5698 10.5976 98.2301 10.52C97.9348 10.4471 97.6337 10.4003 97.3301 10.38C97.0903 10.3667 96.85 10.3667 96.6101 10.38C96.2722 10.374 95.9353 10.4178 95.6101 10.51C95.3856 10.5849 95.1782 10.7039 95.0001 10.86C94.8618 10.9886 94.7585 11.1504 94.7001 11.33C94.6509 11.482 94.6239 11.6403 94.6201 11.8C94.6143 12.0119 94.6625 12.2218 94.7601 12.41C94.8854 12.5906 95.0585 12.7326 95.2601 12.82C95.5789 12.9633 95.9151 13.0641 96.2601 13.12C96.6701 13.21 97.1901 13.31 97.8101 13.41C98.4147 13.5069 99.0101 13.6541 99.5901 13.85C100.13 14.0362 100.634 14.3136 101.08 14.67C101.502 15.0354 101.843 15.4851 102.08 15.99C102.348 16.6008 102.478 17.2632 102.46 17.93C102.476 18.6587 102.293 19.3779 101.93 20.01C101.598 20.6077 101.132 21.1209 100.57 21.51C99.9898 21.9197 99.3439 22.2274 98.6601 22.42C97.9472 22.619 97.2104 22.7199 96.4701 22.72C95.9601 22.72 95.4701 22.72 94.9301 22.65C94.3983 22.596 93.8726 22.4922 93.3601 22.34C92.8188 22.1829 92.2958 21.9684 91.8001 21.7C91.2573 21.4026 90.7507 21.0435 90.2901 20.63L92.2301 18C92.8445 18.5765 93.5787 19.0102 94.3801 19.27C95.1184 19.48 95.8826 19.5843 96.6501 19.58C97.2465 19.6231 97.8405 19.4684 98.3401 19.14C98.5167 19.024 98.6625 18.867 98.7652 18.6824C98.868 18.4978 98.9245 18.2912 98.9301 18.08C98.9311 17.8983 98.9109 17.7171 98.8701 17.54C98.819 17.3537 98.7189 17.1845 98.5801 17.05C98.4014 16.8753 98.1863 16.7421 97.9501 16.66C97.5997 16.5314 97.2326 16.454 96.8601 16.43C96.1563 16.3613 95.458 16.2444 94.7701 16.08C94.1425 15.9353 93.544 15.6851 93.0001 15.34C92.4767 15.0033 92.0441 14.5431 91.7401 14C91.4033 13.3529 91.2413 12.629 91.2701 11.9C91.2539 11.1786 91.4153 10.4643 91.7401 9.82C92.0498 9.25088 92.4798 8.75607 93.0001 8.37C93.5069 7.98829 94.0799 7.70351 94.6901 7.53C95.2995 7.34419 95.9331 7.24983 96.5701 7.25C97.4986 7.25316 98.4241 7.3571 99.3301 7.56C100.255 7.76509 101.134 8.14158 101.92 8.67L100.38 11.35L100.31 11.37ZM104.53 22.55V7.38H115.24V10.38H107.88V13.45H114.15V16.34H107.88V19.52H115.24V22.52L104.53 22.55ZM126.75 22.55L122.94 17L120.69 13.39V22.55H117.3V7.38H120.3L123.46 12L126.37 16.55V7.38H129.72V22.53L126.75 22.55ZM136.06 19.55H138.26C138.737 19.5646 139.213 19.4865 139.66 19.32C140.009 19.1852 140.316 18.961 140.55 18.67C140.769 18.3708 140.925 18.0307 141.01 17.67C141.115 17.2346 141.165 16.7878 141.16 16.34V13.52C141.224 12.6819 140.978 11.8495 140.47 11.18C140.168 10.8983 139.809 10.6841 139.418 10.5513C139.026 10.4186 138.611 10.3704 138.2 10.41H136.1V19.53L136.06 19.55ZM138.75 7.4C139.814 7.38315 140.867 7.60886 141.83 8.06C142.785 8.48809 143.554 9.24365 144 10.19C144.298 10.8169 144.468 11.4968 144.5 12.19C144.56 12.95 144.59 13.79 144.59 14.74C144.59 15.69 144.59 16.74 144.5 17.5C144.458 18.21 144.302 18.9088 144.04 19.57C143.82 20.1012 143.497 20.5838 143.09 20.99C142.719 21.374 142.282 21.6889 141.8 21.92C141.302 22.1566 140.774 22.3247 140.23 22.42C139.646 22.5212 139.053 22.5714 138.46 22.57H132.79V7.38L138.75 7.4Z" fill="white"/>
<path d="M48.78 28.3402C49.0651 28.3329 49.3473 28.3983 49.6 28.5302C49.8407 28.6507 50.0445 28.8338 50.19 29.0602C50.293 29.2328 50.3641 29.4224 50.4001 29.6202C50.454 29.8631 50.4809 30.1113 50.48 30.3602C50.4842 30.6712 50.4641 30.9822 50.42 31.2902C50.3916 31.5087 50.3203 31.7194 50.21 31.9102C50.0659 32.161 49.85 32.363 49.59 32.4902C49.3076 32.6301 48.9952 32.6988 48.6801 32.6902C48.3995 32.6944 48.1209 32.6434 47.8601 32.5402C47.6247 32.4343 47.4238 32.2645 47.28 32.0502C47.1552 31.8554 47.0703 31.6379 47.03 31.4102C46.9778 31.1198 46.9544 30.8251 46.96 30.5302C46.9437 30.3071 46.9437 30.0832 46.96 29.8602C46.9878 29.6691 47.0452 29.4836 47.1301 29.3102C47.2606 29.0108 47.4807 28.7593 47.76 28.5902C48.0638 28.4158 48.41 28.3292 48.76 28.3402H48.78ZM48.78 28.9902C48.5783 28.9847 48.3795 29.0405 48.21 29.1502C48.0463 29.2574 47.9177 29.4104 47.84 29.5902C47.7778 29.7263 47.7373 29.8714 47.7201 30.0202C47.7092 30.1933 47.7092 30.367 47.7201 30.5402C47.7092 30.71 47.7092 30.8803 47.7201 31.0502C47.7319 31.1944 47.7657 31.336 47.82 31.4702C47.8947 31.6434 48.0202 31.7899 48.1801 31.8902C48.3417 32.0007 48.5344 32.0567 48.73 32.0502C48.9469 32.0534 49.1597 31.9906 49.34 31.8702C49.5356 31.73 49.674 31.5241 49.73 31.2902C49.7622 31.1759 49.7823 31.0586 49.7901 30.9402C49.7901 30.8002 49.7901 30.6202 49.7901 30.3902C49.8008 30.2437 49.8008 30.0966 49.7901 29.9502C49.7827 29.832 49.7521 29.7165 49.7001 29.6102C49.6379 29.4166 49.5107 29.2505 49.34 29.1402C49.178 29.0397 48.9907 28.9877 48.8 28.9902H48.78ZM55 32.6402V32.1602C54.8613 32.3398 54.6788 32.481 54.4701 32.5702C54.266 32.6494 54.049 32.6901 53.8301 32.6902C53.6271 32.6957 53.4245 32.6687 53.23 32.6102C53.0528 32.5618 52.8901 32.4709 52.7559 32.3454C52.6218 32.22 52.5202 32.0637 52.46 31.8902C52.3843 31.6716 52.3471 31.4415 52.35 31.2102V28.3802H53V30.9402C52.9835 31.0997 52.9835 31.2606 53 31.4202C53.0223 31.5457 53.0776 31.663 53.16 31.7602C53.2367 31.8565 53.3416 31.9264 53.46 31.9602C53.6363 32.0049 53.8191 32.0184 54 32.0002C54.2624 31.9991 54.5138 31.8949 54.7001 31.7102C54.8976 31.4957 55.0019 31.2115 54.9901 30.9202V28.3802H55.69V32.6402H55ZM58.94 32.6402C58.6765 32.6551 58.4176 32.5653 58.2201 32.3902C58.1273 32.2915 58.0555 32.1751 58.0091 32.0479C57.9627 31.9207 57.9426 31.7854 57.9501 31.6502V29.0002H57.44V28.3902H57.9501V27.3202H58.6501V28.3802H59.3101V29.0002H58.6501V31.4802C58.6504 31.6045 58.6777 31.7274 58.73 31.8402C58.7633 31.8991 58.8135 31.9468 58.8741 31.9771C58.9346 32.0074 59.0029 32.0189 59.07 32.0102H59.44V32.6502L58.94 32.6402ZM64.2901 31.3802C64.2945 31.5684 64.2497 31.7546 64.1601 31.9202C64.0775 32.0826 63.9576 32.2232 63.8101 32.3302C63.6536 32.4553 63.4733 32.5472 63.28 32.6002C63.0623 32.6628 62.8366 32.6932 62.6101 32.6902C62.2946 32.6927 61.9808 32.6454 61.68 32.5502C61.3677 32.448 61.0788 32.2849 60.8301 32.0702L61.26 31.5202C61.4453 31.689 61.6584 31.8244 61.89 31.9202C62.1294 32.0111 62.384 32.0552 62.64 32.0502C62.8732 32.053 63.1034 31.9981 63.3101 31.8902C63.3963 31.8393 63.467 31.7658 63.5146 31.6777C63.5622 31.5896 63.5848 31.4902 63.5801 31.3902C63.5887 31.2975 63.5671 31.2045 63.5184 31.1251C63.4697 31.0458 63.3966 30.9844 63.3101 30.9502C63.0828 30.8612 62.8434 30.8072 62.6 30.7902L62.09 30.7202C61.9166 30.6858 61.7485 30.6287 61.59 30.5502C61.4434 30.4688 61.3196 30.3519 61.23 30.2102C61.1254 30.0356 61.0766 29.8332 61.09 29.6302C61.0871 29.4432 61.1282 29.2582 61.21 29.0902C61.2952 28.9324 61.4108 28.7931 61.55 28.6802C61.8649 28.4466 62.2481 28.3236 62.64 28.3302C62.9313 28.3244 63.2215 28.3649 63.5 28.4502C63.7385 28.531 63.9641 28.6455 64.17 28.7902L63.7901 29.3602C63.6267 29.2436 63.4484 29.1494 63.26 29.0802C63.0613 29.0091 62.8511 28.9752 62.64 28.9802C62.4143 28.9697 62.1909 29.0291 62 29.1502C61.929 29.2034 61.8718 29.273 61.8335 29.3531C61.7952 29.4332 61.7769 29.5214 61.78 29.6102C61.7761 29.701 61.8024 29.7905 61.8549 29.8648C61.9074 29.939 61.9831 29.9936 62.07 30.0202C62.3546 30.1154 62.6505 30.1726 62.9501 30.1902C63.1058 30.2114 63.2596 30.2448 63.41 30.2902C63.5645 30.3245 63.7106 30.3891 63.84 30.4802C63.9745 30.5723 64.0843 30.6959 64.1601 30.8402C64.2535 31.0043 64.2986 31.1915 64.2901 31.3802ZM67.7301 28.3802C68.0152 28.372 68.2976 28.4374 68.5501 28.5702C68.7925 28.6881 68.9969 28.8717 69.14 29.1002C69.2465 29.2721 69.321 29.4618 69.3601 29.6602C69.4105 29.9035 69.434 30.1517 69.43 30.4002C69.4342 30.7112 69.4141 31.0222 69.3701 31.3302C69.3416 31.5487 69.2703 31.7594 69.1601 31.9502C69.0189 32.2034 68.8021 32.4062 68.5401 32.5302C68.2612 32.6701 67.952 32.7388 67.64 32.7302C67.3562 32.7352 67.0742 32.6842 66.81 32.5802C66.5747 32.4743 66.3738 32.3045 66.2301 32.0902C66.1128 31.8927 66.0315 31.676 65.99 31.4502C65.934 31.1602 65.9072 30.8654 65.9101 30.5702C65.8937 30.3471 65.8937 30.1232 65.9101 29.9002C65.9378 29.7091 65.9952 29.5236 66.0801 29.3502C66.2106 29.0508 66.4307 28.7993 66.71 28.6302C67.0144 28.4572 67.3602 28.3708 67.71 28.3802H67.7301ZM67.7301 29.0302C67.5315 29.0255 67.3361 29.0801 67.1687 29.187C67.0012 29.2938 66.8694 29.4481 66.7901 29.6302C66.7278 29.7663 66.6873 29.9114 66.67 30.0602C66.67 30.2202 66.67 30.3902 66.67 30.5802C66.67 30.7702 66.67 30.9402 66.67 31.0902C66.6806 31.2357 66.7179 31.3781 66.78 31.5102C66.8554 31.6799 66.9766 31.8254 67.13 31.9302C67.2917 32.0407 67.4844 32.0967 67.68 32.0902C67.8999 32.0923 68.1155 32.0297 68.3001 31.9102C68.4956 31.77 68.634 31.5641 68.6901 31.3302C68.7019 31.2138 68.7019 31.0965 68.6901 30.9802C68.6901 30.8402 68.6901 30.6602 68.6901 30.4302C68.701 30.2837 68.701 30.1366 68.6901 29.9902C68.6827 29.872 68.6521 29.7565 68.6 29.6502C68.5379 29.4566 68.4107 29.2905 68.24 29.1802C68.078 29.0797 67.8907 29.0277 67.7 29.0302H67.7301ZM73.95 32.6802V32.2002C73.8113 32.3798 73.6288 32.521 73.42 32.6102C73.2162 32.6903 72.9991 32.731 72.78 32.7302C72.5771 32.7341 72.3748 32.7071 72.18 32.6502C72.0028 32.6018 71.8401 32.5109 71.7059 32.3854C71.5718 32.26 71.4702 32.1037 71.4101 31.9302C71.3343 31.7116 71.2971 31.4815 71.3001 31.2502V28.3802H72.0101V30.9402C71.9935 31.0997 71.9935 31.2606 72.0101 31.4202C72.0323 31.5457 72.0876 31.663 72.17 31.7602C72.2467 31.8565 72.3516 31.9264 72.4701 31.9602C72.6261 32.0042 72.7879 32.0244 72.95 32.0202C73.0817 32.0209 73.2121 31.9957 73.334 31.9459C73.4558 31.8962 73.5666 31.8228 73.6601 31.7302C73.8503 31.5119 73.9504 31.2295 73.9401 30.9402V28.3802H74.64V32.6402L73.95 32.6802ZM78.95 29.2302C78.765 29.1225 78.5541 29.0672 78.34 29.0702C78.0853 29.0658 77.8385 29.1588 77.6501 29.3302C77.5517 29.4315 77.4758 29.5524 77.4276 29.6852C77.3793 29.8179 77.3597 29.9593 77.3701 30.1002V32.6802H76.67V28.3802H77.3701V28.9202C77.4918 28.7243 77.6647 28.5652 77.8701 28.4602C78.0618 28.374 78.2698 28.3297 78.4801 28.3302C78.6215 28.3308 78.7624 28.3476 78.9001 28.3802C79.0114 28.4065 79.1167 28.454 79.21 28.5202L78.9101 29.1902L78.95 29.2302ZM83.42 32.1302C83.2425 32.314 83.0322 32.4632 82.8001 32.5702C82.5555 32.6817 82.2888 32.7364 82.02 32.7302C81.775 32.7309 81.5316 32.6903 81.3001 32.6102C81.067 32.5328 80.8548 32.4027 80.68 32.2302C80.4874 32.0426 80.3403 31.8134 80.25 31.5602C80.026 30.9123 80.026 30.208 80.25 29.5602C80.3314 29.3223 80.4627 29.1046 80.6352 28.9218C80.8077 28.739 81.0173 28.5952 81.25 28.5002C81.4816 28.42 81.725 28.3794 81.9701 28.3802C82.2362 28.3782 82.4994 28.4363 82.74 28.5502C82.9697 28.6571 83.1794 28.8025 83.3601 28.9802L82.9001 29.4902C82.7859 29.36 82.6464 29.2545 82.49 29.1802C82.3441 29.0806 82.1757 29.0188 82 29.0002C81.8275 28.9913 81.6551 29.0197 81.4946 29.0836C81.3341 29.1474 81.1893 29.2452 81.07 29.3702C80.8549 29.7096 80.7406 30.1032 80.7406 30.5052C80.7406 30.9071 80.8549 31.3007 81.07 31.6402C81.189 31.765 81.334 31.862 81.4948 31.9242C81.6555 31.9864 81.8281 32.0124 82 32.0002C82.1786 32.0031 82.3547 31.9583 82.5101 31.8702C82.6579 31.7915 82.7901 31.6865 82.9001 31.5602L83.3701 32.0702L83.42 32.1302ZM85 27.3502V26.6602H85.7V27.3502H85ZM85 32.6402V28.3802H85.7V32.6402H85ZM90.35 32.6402V30.0902C90.3654 29.8144 90.2917 29.541 90.14 29.3102C90.0436 29.208 89.9248 29.1295 89.7929 29.0809C89.6611 29.0324 89.5197 29.015 89.38 29.0302C89.2475 29.0268 89.1155 29.0498 88.9919 29.0978C88.8683 29.1459 88.7555 29.2181 88.6601 29.3102C88.5629 29.4144 88.488 29.5373 88.4398 29.6714C88.3917 29.8055 88.3714 29.9479 88.38 30.0902V32.6402H87.67V28.3702H88.38V28.9102C88.5325 28.7295 88.724 28.5859 88.9401 28.4902C89.1476 28.3845 89.3772 28.3297 89.6101 28.3302C89.8038 28.3275 89.9966 28.3579 90.18 28.4202C90.3457 28.4857 90.4981 28.5805 90.63 28.7002C90.7571 28.8321 90.8558 28.9886 90.92 29.1602C90.9995 29.3674 91.0369 29.5883 91.03 29.8102V32.6402H90.35ZM96.2201 32.5702C96.2261 32.8541 96.1751 33.1363 96.07 33.4002C95.9808 33.6175 95.8441 33.8123 95.67 33.9702C95.5037 34.122 95.3056 34.2348 95.09 34.3002C94.6223 34.4536 94.1178 34.4536 93.6501 34.3002C93.4095 34.2314 93.1897 34.1043 93.0101 33.9302L93.43 33.3502C93.5617 33.4625 93.7102 33.5537 93.8701 33.6202C94.0368 33.6957 94.2171 33.7365 94.4001 33.7402C94.6919 33.7472 94.9763 33.6477 95.2 33.4602C95.3083 33.3602 95.3931 33.2375 95.4484 33.101C95.5038 32.9644 95.5282 32.8173 95.52 32.6702V32.1802C95.3683 32.359 95.1764 32.4995 94.96 32.5902C94.7681 32.6621 94.565 32.6993 94.3601 32.7002C94.0982 32.711 93.8385 32.6487 93.6101 32.5202C93.419 32.4055 93.2606 32.2437 93.1501 32.0502C93.0258 31.8453 92.9441 31.6174 92.9101 31.3802C92.8611 31.1265 92.8376 30.8685 92.84 30.6102C92.8254 30.337 92.8254 30.0633 92.84 29.7902C92.8772 29.5361 92.9548 29.2896 93.07 29.0602C93.1841 28.8462 93.3533 28.6667 93.56 28.5402C93.8075 28.3937 94.0929 28.324 94.38 28.3402C94.5903 28.34 94.7982 28.3843 94.99 28.4702C95.1821 28.5547 95.3479 28.6895 95.4701 28.8602V28.3902H96.17V32.5802L96.2201 32.5702ZM93.5501 30.5102C93.5393 30.6967 93.5393 30.8836 93.5501 31.0702C93.5634 31.2336 93.6075 31.3931 93.68 31.5402C93.74 31.6777 93.8414 31.7931 93.9701 31.8702C94.1293 31.9565 94.309 31.998 94.49 31.9902C94.6733 31.9952 94.8541 31.9465 95.0101 31.8502C95.1381 31.7608 95.2414 31.6404 95.31 31.5002C95.3822 31.3487 95.4295 31.1866 95.45 31.0202C95.4641 30.8504 95.4641 30.6799 95.45 30.5102C95.45 30.3702 95.45 30.2102 95.45 30.0402C95.4329 29.871 95.389 29.7056 95.32 29.5502C95.2594 29.3997 95.1592 29.2684 95.03 29.1702C94.8715 29.062 94.6817 29.0092 94.49 29.0202C94.3 29.0111 94.1117 29.0599 93.95 29.1602C93.8223 29.2472 93.7218 29.3685 93.6601 29.5102C93.5912 29.6621 93.5473 29.8242 93.53 29.9902C93.5204 30.1634 93.5204 30.337 93.53 30.5102H93.5501Z" fill="#79B85F"/>
</g>
<defs>
<clipPath id="clip0_12_200">
<rect width="144.55" height="40.95" fill="white"/>
</clipPath>
</defs>
</svg>
