<svg width="145" height="41" viewBox="0 0 145 41" fill="none" xmlns="http://www.w3.org/2000/svg">
<path d="M32.7517 16.7804C33.1167 16.5179 33.5557 16.3777 34.0056 16.3799C34.2901 16.3799 34.5719 16.4359 34.8348 16.5445C35.0976 16.6532 35.3365 16.8125 35.5377 17.0133C35.7389 17.2142 35.8985 17.4526 36.0074 17.7149C36.1163 17.9773 36.1723 18.2586 36.1723 18.5426V29.6761C36.1794 30.0964 36.0636 30.5096 35.8391 30.8652C35.6147 31.2209 35.2912 31.5035 34.9084 31.6786L27.0841 36.134L19.1595 40.7196C18.8289 40.9113 18.4534 41.0122 18.0711 41.0122C17.6888 41.0122 17.3133 40.9113 16.9828 40.7196L9.02808 36.134L1.09346 31.5384C0.635845 31.2362 0.310833 30.7713 0.1846 30.2383C0.0583669 29.7054 0.140405 29.1444 0.414009 28.6697C0.687612 28.195 1.13221 27.8422 1.65727 27.6832C2.18232 27.5242 2.74836 27.5709 3.24012 27.8139L11.2048 32.3995L18.0862 36.4043L24.9776 32.3995L31.8389 28.4446V22.2671L19.1595 29.576C18.8289 29.7677 18.4534 29.8686 18.0711 29.8686C17.6888 29.8686 17.3133 29.7677 16.9828 29.576L1.09346 20.4048C0.763082 20.218 0.487995 19.9474 0.296004 19.6204C0.104013 19.2934 0.00192503 18.9216 6.18291e-05 18.5426V11.3237C-0.00701371 10.9035 0.108763 10.4903 0.333233 10.1346C0.557703 9.77902 0.881138 9.49638 1.26398 9.32131L6.27955 6.42778L12.2982 2.98358L13.502 7.25879L11.2349 8.56038L18.1163 4.5555L4.33351 12.5653V17.301L18.0561 25.2307L32.7216 16.7804H32.7517ZM18.5777 0.0600128H18.7081H18.5777ZM18.8786 0.150123L18.999 0.200184L18.8786 0.150123Z" fill="#201600"/>
<path d="M9.02808 4.87596L17.053 0.290364C17.3836 0.0986888 17.7591 -0.00227356 18.1414 -0.00227356C18.5237 -0.00227356 18.8992 0.0986888 19.2297 0.290364L27.0841 4.87596L35.109 9.46155C35.3547 9.60223 35.5702 9.78984 35.7432 10.0137C35.9163 10.2375 36.0435 10.4931 36.1175 10.766C36.1916 11.0389 36.211 11.3236 36.1748 11.604C36.1386 11.8844 36.0474 12.1549 35.9065 12.4001C35.7655 12.6453 35.5776 12.8604 35.3533 13.0332C35.1291 13.2059 34.873 13.3328 34.5996 13.4067C34.3262 13.4806 34.0409 13.5001 33.76 13.4639C33.4791 13.4278 33.208 13.3368 32.9624 13.1961L24.9776 8.6005L18.0561 4.63566L11.1747 8.64055L9.02808 4.87596Z" fill="#201600"/>
<path d="M13.1107 17.7817C12.863 17.9224 12.59 18.013 12.3073 18.0484C12.0245 18.0838 11.7376 18.0632 11.4628 17.9879C11.188 17.9126 10.9308 17.784 10.7058 17.6095C10.4808 17.4349 10.2924 17.2179 10.1515 16.9707C10.0105 16.7235 9.91974 16.451 9.88429 16.1688C9.84884 15.8866 9.86943 15.6002 9.94488 15.3259C10.0203 15.0517 10.1492 14.7949 10.324 14.5704C10.4989 14.3458 10.7164 14.1578 10.964 14.0171L16.9827 10.5329C17.3133 10.3412 17.6888 10.2402 18.0711 10.2402C18.4534 10.2402 18.8289 10.3412 19.1594 10.5329L25.1781 14.0071C25.6796 14.2859 26.0496 14.7521 26.2067 15.3032C26.3638 15.8543 26.2951 16.4451 26.0157 16.9457C25.8774 17.1935 25.6915 17.4117 25.4687 17.5879C25.2459 17.764 24.9905 17.8947 24.7171 17.9723C24.165 18.1291 23.5731 18.0605 23.0716 17.7817L18.056 14.9182L13.0404 17.7817H13.1107Z" fill="#79B85F"/>
<path d="M57.0973 22.5575L51.54 14.0171L49.5338 10.7031H49.4736V22.5575H47.5376V7.38902H49.4435L54.7901 15.6491L56.997 19.2935L57.0571 19.2435V7.38902H58.9831V22.5575H57.0973ZM62.2332 22.5575V7.38902H71.843V9.16119H64.1993V14.0171H70.7396V15.6992H64.1993V20.7053H71.8832V22.4674L62.2332 22.5575ZM81.2522 11.0134L80.2491 14.758L78.2429 22.5575H76.5075L72.6957 7.38902H74.7822L76.4874 14.8281L77.4103 18.9231H77.4906L78.4937 14.8481L80.5701 7.369H82.145L84.2616 15.0183L85.2647 19.0232H85.3249C85.4586 18.4091 85.589 17.7416 85.7161 17.0208C85.8465 16.3299 85.9769 15.6791 86.1173 15.0784L87.8627 7.39904H89.9592L86.1875 22.5575H84.5224L82.5162 15.0183L81.3826 11.0134H81.2522ZM100.612 11.3839C100.277 11.1594 99.917 10.9745 99.539 10.8332C99.2117 10.7109 98.8766 10.6105 98.5359 10.5329C98.2396 10.4599 97.9375 10.413 97.6331 10.3927C97.3925 10.3793 97.1514 10.3793 96.9108 10.3927C96.5719 10.3867 96.2339 10.4305 95.9077 10.5228C95.6824 10.5979 95.4744 10.717 95.2958 10.8733C95.157 11.002 95.0534 11.164 94.9949 11.3438C94.9454 11.496 94.9184 11.6545 94.9146 11.8144C94.9088 12.0266 94.9571 12.2368 95.0551 12.4252C95.1807 12.6059 95.3544 12.7481 95.5566 12.8357C95.8764 12.9791 96.2137 13.0801 96.5597 13.136C96.971 13.2261 97.4926 13.3263 98.1146 13.4264C98.721 13.5234 99.3182 13.6707 99.9001 13.8669C100.442 14.0534 100.947 14.3311 101.395 14.6879C101.822 15.0497 102.165 15.5009 102.398 16.0095C102.675 16.6188 102.808 17.2832 102.789 17.9519C102.805 18.6815 102.621 19.4016 102.257 20.0344C101.924 20.6328 101.457 21.1467 100.893 21.5363C100.311 21.9464 99.6631 22.2546 98.9772 22.4474C98.262 22.6466 97.523 22.7477 96.7804 22.7478C96.2688 22.7478 95.7773 22.7478 95.2356 22.6777C94.7021 22.6236 94.1748 22.5197 93.6607 22.3673C93.1177 22.21 92.5931 21.9952 92.0959 21.7265C91.5514 21.4287 91.0431 21.0692 90.5812 20.6552L92.5172 18.022C93.1335 18.5992 93.8699 19.0334 94.6739 19.2935C95.4144 19.5038 96.1811 19.6083 96.9509 19.6039C97.5492 19.647 98.145 19.4922 98.6462 19.1634C98.8233 19.0472 98.9696 18.89 99.0726 18.7052C99.1757 18.5204 99.2324 18.3135 99.238 18.1021C99.239 17.9202 99.2188 17.7387 99.1779 17.5614C99.1266 17.3749 99.0261 17.2054 98.887 17.0708C98.7076 16.8959 98.4918 16.7626 98.255 16.6804C97.9035 16.5516 97.5352 16.4741 97.1616 16.4501C96.4556 16.3813 95.7551 16.2642 95.0651 16.0996C94.4355 15.9548 93.8351 15.7042 93.2896 15.3587C92.7646 15.0216 92.3305 14.5609 92.0257 14.0171C91.6878 13.3692 91.5253 12.6444 91.5542 11.9145C91.5379 11.1923 91.6998 10.4771 92.0257 9.832C92.3363 9.26219 92.7676 8.76678 93.2896 8.38023C93.7979 7.99806 94.3727 7.71293 94.9848 7.53921C95.5961 7.35317 96.2316 7.2587 96.8707 7.25887C97.8021 7.26258 98.7303 7.36664 99.6393 7.56924C100.567 7.77459 101.448 8.15153 102.237 8.6806L100.683 11.3639L100.612 11.3839ZM104.855 22.5775V7.38902H115.599V10.3927H108.216V13.4664H114.505V16.36H108.216V19.5438H115.599V22.5475L104.855 22.5775ZM127.145 22.5775L123.323 17.0208L121.066 13.4064V22.5775H117.665V7.38902H120.675L123.844 12.0147L126.763 16.5702V7.38902H130.124V22.5575L127.145 22.5775ZM136.484 19.5739H138.69C139.169 19.5878 139.646 19.5096 140.095 19.3436C140.444 19.2086 140.752 18.9842 140.988 18.6928C141.207 18.3932 141.364 18.0528 141.449 17.6916C141.554 17.2556 141.605 16.8083 141.6 16.36V13.5365C141.663 12.6974 141.417 11.864 140.907 11.1937C140.604 10.9117 140.244 10.6971 139.852 10.5642C139.459 10.4313 139.043 10.3831 138.63 10.4227H136.524V19.5539L136.484 19.5739ZM139.182 7.40905C140.249 7.39218 141.305 7.61817 142.272 8.06985C143.229 8.49846 144.001 9.25495 144.448 10.2025C144.747 10.8301 144.917 11.5108 144.95 12.2049C145.01 12.9658 145.04 13.8068 145.04 14.758C145.04 15.7092 145.04 16.7605 144.95 17.5214C144.907 18.2323 144.752 18.9319 144.488 19.5939C144.268 20.1258 143.944 20.6089 143.536 21.0156C143.163 21.4001 142.725 21.7154 142.242 21.9468C141.742 22.1836 141.212 22.352 140.667 22.4474C140.08 22.5487 139.486 22.599 138.891 22.5976H133.203V7.38902L139.182 7.40905Z" fill="#201600"/>
<path d="M48.9317 28.3746C49.2177 28.3673 49.5007 28.4328 49.7543 28.5648C49.9957 28.6855 50.2001 28.8688 50.3461 29.0955C50.4494 29.2683 50.5207 29.4582 50.5568 29.6562C50.611 29.8994 50.6379 30.1479 50.637 30.3971C50.6412 30.7085 50.6211 31.0199 50.5769 31.3282C50.5484 31.547 50.4768 31.758 50.3662 31.949C50.2216 32.2001 50.005 32.4024 49.7443 32.5297C49.4609 32.6698 49.1475 32.7386 48.8314 32.7299C48.55 32.7342 48.2706 32.6831 48.0089 32.5797C47.7728 32.4737 47.5712 32.3038 47.4271 32.0891C47.3019 31.8942 47.2166 31.6764 47.1763 31.4484C47.1239 31.1577 47.1004 30.8626 47.1061 30.5673C47.0896 30.344 47.0896 30.1198 47.1061 29.8965C47.134 29.7052 47.1915 29.5194 47.2766 29.3458C47.4076 29.0461 47.6283 28.7943 47.9086 28.6249C48.2133 28.4503 48.5605 28.3637 48.9117 28.3746H48.9317ZM48.9317 29.0254C48.7293 29.02 48.53 29.0758 48.36 29.1856C48.1957 29.293 48.0667 29.4462 47.9888 29.6261C47.9264 29.7625 47.8857 29.9078 47.8685 30.0567C47.8576 30.23 47.8576 30.4039 47.8685 30.5773C47.8576 30.7473 47.8576 30.9179 47.8685 31.0879C47.8804 31.2324 47.9142 31.3741 47.9688 31.5084C48.0436 31.6819 48.1696 31.8286 48.3299 31.9289C48.492 32.0396 48.6853 32.0957 48.8816 32.0891C49.0991 32.0924 49.3125 32.0295 49.4935 31.9089C49.6896 31.7686 49.8285 31.5625 49.8847 31.3282C49.917 31.2138 49.9371 31.0964 49.9449 30.9778C49.9449 30.8376 49.9449 30.6574 49.9449 30.4271C49.9557 30.2805 49.9557 30.1332 49.9449 29.9866C49.9375 29.8683 49.9068 29.7526 49.8546 29.6462C49.7923 29.4524 49.6647 29.2861 49.4935 29.1756C49.331 29.075 49.143 29.0229 48.9518 29.0254H48.9317ZM55.1711 32.6799V32.1993C55.0319 32.3792 54.8489 32.5205 54.6395 32.6098C54.4348 32.6891 54.2171 32.7298 53.9975 32.7299C53.7939 32.7355 53.5906 32.7085 53.3956 32.6498C53.2179 32.6014 53.0546 32.5104 52.92 32.3848C52.7854 32.2592 52.6836 32.1027 52.6232 31.9289C52.5473 31.7101 52.5099 31.4797 52.5129 31.2481V28.4147H53.1649V30.9778C53.1483 31.1376 53.1483 31.2986 53.1649 31.4584C53.1883 31.5818 53.2398 31.6983 53.3154 31.7988C53.3982 31.8933 53.5059 31.9626 53.6263 31.999C53.8032 32.0438 53.9865 32.0574 54.168 32.0391C54.4312 32.038 54.6833 31.9337 54.8702 31.7487C55.0684 31.534 55.173 31.2495 55.1611 30.9578V28.4147H55.8633V32.6799H55.1711ZM59.1234 32.6799C58.859 32.6949 58.5993 32.6049 58.4011 32.4296C58.3081 32.3308 58.2361 32.2142 58.1895 32.0868C58.143 31.9595 58.1228 31.824 58.1303 31.6887V29.0354H57.6187V28.4247H58.1303V27.3534H58.8325V28.4147H59.4945V29.0354H58.8325V31.5184C58.8328 31.643 58.8602 31.7659 58.9127 31.8789C58.9461 31.9379 58.9964 31.9857 59.0572 32.016C59.118 32.0463 59.1864 32.0579 59.2538 32.0491H59.6249V32.6899L59.1234 32.6799ZM64.49 31.4183C64.4945 31.6068 64.4496 31.7932 64.3596 31.959C64.2768 32.1217 64.1565 32.2624 64.0085 32.3695C63.8516 32.4948 63.6707 32.5868 63.4769 32.6398C63.2585 32.7026 63.032 32.7329 62.8048 32.7299C62.4884 32.7324 62.1736 32.6851 61.8719 32.5898C61.5586 32.4875 61.2688 32.3242 61.0193 32.1092L61.4506 31.5585C61.6364 31.7276 61.8502 31.8631 62.0826 31.959C62.3227 32.05 62.5781 32.0942 62.8349 32.0891C63.0693 32.097 63.3015 32.0417 63.507 31.9289C63.5935 31.878 63.6645 31.8045 63.7122 31.7163C63.7599 31.628 63.7826 31.5285 63.7778 31.4283C63.7865 31.3355 63.7648 31.2424 63.716 31.163C63.6672 31.0835 63.5938 31.0221 63.507 30.9878C63.2791 30.8987 63.0389 30.8447 62.7948 30.8276L62.2832 30.7575C62.1092 30.7232 61.9405 30.6659 61.7816 30.5873C61.6346 30.5059 61.5104 30.3888 61.4205 30.2469C61.3156 30.0721 61.2666 29.8695 61.2801 29.6662C61.2771 29.479 61.3183 29.2938 61.4004 29.1255C61.4859 28.9676 61.6018 28.8281 61.7415 28.715C61.893 28.601 62.0625 28.513 62.2431 28.4547C62.4347 28.3953 62.6342 28.3649 62.8349 28.3646C63.127 28.3588 63.4182 28.3994 63.6976 28.4848C63.9367 28.5657 64.163 28.6803 64.3697 28.8252L63.9885 29.3959C63.8246 29.2792 63.6458 29.1849 63.4568 29.1155C63.2574 29.0443 63.0466 29.0104 62.8349 29.0154C62.6085 29.005 62.3843 29.0644 62.1929 29.1856C62.1216 29.2389 62.0643 29.3086 62.0259 29.3888C61.9874 29.469 61.969 29.5573 61.9722 29.6462C61.9683 29.7371 61.9947 29.8268 62.0473 29.9011C62.1 29.9754 62.1759 30.0301 62.2631 30.0567C62.5486 30.152 62.8454 30.2093 63.1459 30.2269L63.6073 30.317C63.7606 30.3611 63.9061 30.4287 64.0386 30.5172C64.1735 30.6095 64.2837 30.7332 64.3596 30.8777C64.4534 31.042 64.4986 31.2294 64.49 31.4183ZM67.9407 28.4147C68.2268 28.4065 68.51 28.472 68.7633 28.6049C69.0065 28.723 69.2115 28.9069 69.3551 29.1355C69.4619 29.3077 69.5367 29.4976 69.5758 29.6962C69.6264 29.9399 69.65 30.1883 69.646 30.4371C69.6502 30.7486 69.6301 31.0599 69.5859 31.3683C69.5574 31.587 69.4858 31.798 69.3752 31.989C69.2336 32.2426 69.0162 32.4456 68.7533 32.5697C68.4735 32.7098 68.1633 32.7786 67.8505 32.77C67.5657 32.775 67.2828 32.724 67.0179 32.6198C66.7818 32.5138 66.5802 32.3438 66.4361 32.1292C66.3142 31.9336 66.2323 31.7158 66.1953 31.4884C66.1391 31.1981 66.1122 30.903 66.1151 30.6073C66.0986 30.384 66.0986 30.1598 66.1151 29.9365C66.1429 29.7452 66.2005 29.5595 66.2856 29.3858C66.4166 29.0861 66.6373 28.8343 66.9176 28.665C67.2228 28.4918 67.5697 28.4053 67.9207 28.4147H67.9407ZM67.9407 29.0655C67.7416 29.0608 67.5455 29.1155 67.3776 29.2225C67.2097 29.3294 67.0775 29.4839 66.9978 29.6662C66.9354 29.8025 66.8947 29.9478 66.8774 30.0967C66.8774 30.2569 66.8774 30.4271 66.8774 30.6174C66.8774 30.8076 66.8774 30.9778 66.8774 31.128C66.8881 31.2737 66.9255 31.4163 66.9878 31.5485C67.0634 31.7185 67.185 31.8641 67.3389 31.969C67.501 32.0796 67.6943 32.1358 67.8906 32.1292C68.1111 32.1314 68.3274 32.0687 68.5125 31.949C68.7087 31.8087 68.8476 31.6025 68.9037 31.3683C68.9156 31.2518 68.9156 31.1343 68.9037 31.0178C68.9037 30.8777 68.9037 30.6974 68.9037 30.4672C68.9148 30.3205 68.9148 30.1733 68.9037 30.0266C68.8964 29.9083 68.8657 29.7927 68.8135 29.6862C68.7511 29.4924 68.6235 29.3262 68.4523 29.2156C68.2898 29.1151 68.1019 29.063 67.9106 29.0655H67.9407ZM74.1801 32.7199V32.2393C74.0409 32.4192 73.8579 32.5605 73.6485 32.6498C73.444 32.7301 73.2262 32.7708 73.0065 32.77C72.8029 32.7739 72.6 32.7469 72.4046 32.6899C72.2268 32.6414 72.0636 32.5505 71.929 32.4248C71.7944 32.2992 71.6926 32.1428 71.6322 31.969C71.5562 31.7501 71.5189 31.5198 71.5219 31.2882V28.4147H72.2341V30.9778C72.2175 31.1376 72.2175 31.2986 72.2341 31.4584C72.2564 31.584 72.3118 31.7015 72.3946 31.7988C72.4715 31.8952 72.5767 31.9653 72.6955 31.999C72.8521 32.0431 73.0144 32.0634 73.177 32.0591C73.309 32.0599 73.4399 32.0346 73.5621 31.9848C73.6843 31.935 73.7955 31.8615 73.8892 31.7688C74.0801 31.5503 74.1805 31.2675 74.1701 30.9778V28.4147H74.8723V32.6799L74.1801 32.7199ZM79.1957 29.2657C79.01 29.1579 78.7985 29.1025 78.5838 29.1055C78.3283 29.1011 78.0807 29.1942 77.8916 29.3658C77.7929 29.4672 77.7169 29.5884 77.6685 29.7213C77.62 29.8541 77.6004 29.9958 77.6108 30.1368V32.7199H76.9086V28.4147H77.6108V28.9553C77.7329 28.7592 77.9063 28.6 78.1123 28.4948C78.3047 28.4085 78.5133 28.3641 78.7242 28.3646C78.8661 28.3652 79.0074 28.382 79.1455 28.4147C79.2572 28.441 79.3628 28.4886 79.4565 28.5548L79.1556 29.2257L79.1957 29.2657ZM83.6796 32.1692C83.5015 32.3533 83.2906 32.5027 83.0577 32.6098C82.8123 32.7215 82.5448 32.7762 82.2752 32.77C82.0294 32.7707 81.7853 32.7301 81.553 32.6498C81.3192 32.5723 81.1064 32.4421 80.9311 32.2694C80.7378 32.0816 80.5903 31.8521 80.4997 31.5985C80.275 30.9499 80.275 30.2447 80.4997 29.5961C80.5813 29.358 80.713 29.14 80.8861 28.957C81.0591 28.7739 81.2694 28.63 81.5028 28.5348C81.7351 28.4545 81.9793 28.4139 82.2251 28.4147C82.4921 28.4127 82.7561 28.4709 82.9975 28.5849C83.2279 28.6919 83.4382 28.8375 83.6194 29.0154L83.158 29.526C83.0435 29.3957 82.9035 29.29 82.7467 29.2156C82.6003 29.116 82.4314 29.0541 82.2552 29.0354C82.0821 29.0265 81.9092 29.055 81.7482 29.1189C81.5872 29.1829 81.4419 29.2807 81.3223 29.4059C81.1064 29.7457 80.9918 30.1399 80.9918 30.5423C80.9918 30.9447 81.1064 31.3388 81.3223 31.6786C81.4416 31.8036 81.587 31.9007 81.7483 31.963C81.9096 32.0253 82.0827 32.0513 82.2552 32.0391C82.4343 32.0421 82.6109 31.9971 82.7668 31.9089C82.9124 31.8304 83.0445 31.729 83.158 31.6086L83.6294 32.1092L83.6796 32.1692ZM85.2645 27.3834V26.6926H85.9667V27.3834H85.2645ZM85.2645 32.6799V28.4147H85.9667V32.6799H85.2645ZM90.6312 32.6799V30.1268C90.648 29.8536 90.5739 29.5826 90.4205 29.3558C90.3262 29.2498 90.2077 29.168 90.075 29.1174C89.9422 29.0669 89.7992 29.0491 89.6581 29.0655C89.5244 29.0634 89.3917 29.088 89.2676 29.1378C89.1436 29.1877 89.0308 29.2618 88.9359 29.3558C88.8372 29.4572 88.7611 29.5784 88.7127 29.7113C88.6643 29.8441 88.6446 29.9857 88.655 30.1268V32.6799H87.9428V28.4047H88.655V28.9453C88.8102 28.7644 89.0016 28.6177 89.2168 28.5148C89.4272 28.4165 89.6565 28.3652 89.8889 28.3646C90.0832 28.3619 90.2766 28.3924 90.4606 28.4547C90.6287 28.5165 90.7823 28.6119 90.912 28.7351C91.0395 28.8671 91.1385 29.0239 91.2029 29.1956C91.2827 29.4031 91.3202 29.6243 91.3133 29.8464V32.6799H90.6312ZM96.5194 32.6098C96.5256 32.894 96.4744 33.1766 96.369 33.4408C96.2794 33.6584 96.1423 33.8534 95.9677 34.0115C95.8009 34.1636 95.6021 34.2764 95.3859 34.3419C94.9167 34.4955 94.4106 34.4955 93.9414 34.3419C93.7002 34.273 93.4796 34.1458 93.2994 33.9714L93.7208 33.3907C93.8529 33.5033 94.0018 33.5945 94.1621 33.6611C94.3293 33.7367 94.5102 33.7775 94.6938 33.7812C94.9865 33.7883 95.2718 33.6886 95.4963 33.5009C95.6048 33.4008 95.6899 33.278 95.7454 33.1412C95.8009 33.0045 95.8254 32.8572 95.8173 32.7099V32.2193C95.665 32.3984 95.4725 32.539 95.2555 32.6298C95.063 32.7018 94.8592 32.7391 94.6536 32.7399C94.391 32.7508 94.1304 32.6884 93.9013 32.5597C93.7096 32.4449 93.5507 32.2829 93.4399 32.0891C93.3152 31.884 93.2333 31.6558 93.1991 31.4183C93.15 31.1643 93.1265 30.9061 93.1289 30.6474C93.1093 30.3741 93.1093 30.0997 93.1289 29.8264C93.1661 29.572 93.244 29.3252 93.3596 29.0955C93.4741 28.8813 93.6438 28.7016 93.8512 28.5749C94.0994 28.4282 94.3857 28.3585 94.6737 28.3746C94.8846 28.3744 95.0931 28.4188 95.2856 28.5048C95.4783 28.5895 95.6446 28.7243 95.7671 28.8953V28.4247H96.4693V32.6198L96.5194 32.6098ZM93.8411 30.5473C93.8303 30.734 93.8303 30.9212 93.8411 31.1079C93.8545 31.2716 93.8987 31.4313 93.9715 31.5785C94.0316 31.7162 94.1334 31.8317 94.2624 31.9089C94.4222 31.9954 94.6025 32.0369 94.784 32.0291C94.9679 32.0341 95.1492 31.9854 95.3057 31.8889C95.4342 31.7995 95.5377 31.6789 95.6066 31.5385C95.679 31.3869 95.7264 31.2246 95.747 31.0579C95.7616 30.888 95.7616 30.7172 95.747 30.5473C95.747 30.4071 95.747 30.2469 95.747 30.0767C95.7298 29.9073 95.6858 29.7417 95.6166 29.5861C95.5558 29.4354 95.4553 29.304 95.3257 29.2056C95.1667 29.0973 94.9763 29.0445 94.784 29.0554C94.5934 29.0464 94.4046 29.0953 94.2424 29.1956C94.1143 29.2827 94.0134 29.4042 93.9515 29.546C93.8824 29.6982 93.8383 29.8605 93.8211 30.0266C93.8114 30.2 93.8114 30.3739 93.8211 30.5473H93.8411Z" fill="#79B85F"/>
</svg>
